<?xml version="1.0" encoding="UTF-8" standalone="no"?>
<svg
   width="485.73077"
   height="485.73077"
   version="1.1"
   viewBox="250 250 252.58 252.58"
   id="svg4"
   sodipodi:docname="info_2.svg"
   inkscape:version="1.2 (dc2aedaf03, 2022-05-15)"
   xmlns:inkscape="http://www.inkscape.org/namespaces/inkscape"
   xmlns:sodipodi="http://sodipodi.sourceforge.net/DTD/sodipodi-0.dtd"
   xmlns="http://www.w3.org/2000/svg"
   xmlns:svg="http://www.w3.org/2000/svg">
  <defs
     id="defs8" />
  <sodipodi:namedview
     id="namedview6"
     pagecolor="#ffffff"
     bordercolor="#000000"
     borderopacity="0.25"
     inkscape:showpageshadow="2"
     inkscape:pageopacity="0.0"
     inkscape:pagecheckerboard="0"
     inkscape:deskcolor="#d1d1d1"
     showgrid="false"
     inkscape:zoom="2.054"
     inkscape:cx="242.45375"
     inkscape:cy="244.88802"
     inkscape:window-width="2560"
     inkscape:window-height="1369"
     inkscape:window-x="-8"
     inkscape:window-y="-8"
     inkscape:window-maximized="1"
     inkscape:current-layer="svg4" />
  <path
     d="M 376.29,502.58 C 306.544,502.58 250,446.041 250,376.29 250,306.544 306.539,250 376.29,250 c 69.75,0 126.29,56.539 126.29,126.29 0,69.75 -56.539,126.29 -126.29,126.29 z m -14.484,-95.262 h 26.453 c 0.12109,-4.6836 0.76953,-8.5547 1.9414,-11.605 1.1719,-3.0547 3.2695,-6.0273 6.2891,-8.9258 l 10.637,-9.8984 c 4.5039,-4.3789 7.7695,-8.6641 9.8047,-12.855 2.0352,-4.1953 3.0547,-8.8516 3.0547,-13.969 0,-11.715 -3.7773,-20.75 -11.332,-27.102 -7.5547,-6.3516 -18.207,-9.5273 -31.957,-9.5273 -13.812,0 -24.543,3.4375 -32.188,10.312 -7.6484,6.875 -11.531,16.48 -11.656,28.812 h 31.266 c 0.12109,-4.625 1.3242,-8.293 3.6055,-11.004 2.2812,-2.7148 5.2734,-4.0703 8.9727,-4.0703 8.0156,0 12.023,4.6562 12.023,13.965 0,3.8242 -1.1875,7.3242 -3.5586,10.5 -2.375,3.1758 -5.8438,6.6758 -10.406,10.496 -4.5625,3.8242 -7.8633,8.3398 -9.8984,13.551 -2.0352,5.2109 -3.0508,12.32 -3.0508,21.32 z m -3.793,28.121 c 0,4.5625 1.6484,8.3086 4.9492,11.238 3.2969,2.9297 7.4141,4.3945 12.348,4.3945 4.9336,0 9.0469,-1.4648 12.348,-4.3945 3.3008,-2.9297 4.9492,-6.6758 4.9492,-11.238 0,-4.5622 -1.6484,-8.3086 -4.9492,-11.238 -3.3008,-2.9297 -7.4141,-4.3945 -12.348,-4.3945 -4.9336,0 -9.0508,1.4648 -12.348,4.3945 -3.3008,2.9297 -4.9492,6.6758 -4.9492,11.238 z"
     fill-rule="evenodd"
     id="path2" />
</svg>
